<svg xmlns="http://www.w3.org/2000/svg" viewBox="0 0 64 64" fill="none">
  <rect width="64" height="64" rx="18" fill="#0F172A" />
  <rect x="6" y="6" width="52" height="52" rx="14" fill="url(#paint0_linear_1_1)" />
  <rect x="11" y="11" width="42" height="7" rx="3.5" fill="#DBEAFE" fill-opacity="0.85" />
  <path
    d="M18.5 44.5V25.25H23.33V40.43H31.61V44.5H18.5ZM34.36 44.5V25.25H39.19V44.5H34.36ZM37.11 21.89C36.3 21.89 35.62 21.63 35.07 21.11C34.54 20.57 34.27 19.93 34.27 19.17C34.27 18.4 34.54 17.77 35.07 17.28C35.62 16.75 36.3 16.49 37.11 16.49C37.95 16.49 38.63 16.75 39.16 17.28C39.69 17.77 39.96 18.4 39.96 19.17C39.96 19.93 39.69 20.57 39.16 21.11C38.63 21.63 37.95 21.89 37.11 21.89Z"
    fill="white"
  />
  <defs>
    <linearGradient id="paint0_linear_1_1" x1="10" y1="8" x2="54" y2="56" gradientUnits="userSpaceOnUse">
      <stop stop-color="#2563EB" />
      <stop offset="1" stop-color="#1D4ED8" />
    </linearGradient>
  </defs>
</svg>
